# xmcd CD database file
#
# Track frame offsets:
#	150
#	11225
#	20633
#	39578
#	49257
#	60026
#	77093
#	90999
#	100657
#	114902
#	129289
#	139664
#	151549
#	162522
#
# Disc length: 2379 seconds
#
# Revision: 0
# Processed by: cddbd v1.5.2PL0 Copyright (c) Steve Scherf et al.
# Submitted via: CDex 1.51
#
DISCID=9c09490e
DTITLE=The Horse Creek Band - Through The Years
DYEAR=1900
DGENRE=Country
TTITLE0=Maggie
TTITLE1=Uncle Pen
TTITLE2=Mansion Over the Hill
TTITLE3=Kicking Mule
TTITLE4=Waiting for the Train
TTITLE5=Murder on Music Row
TTITLE6=Uncle Joe
TTITLE7=Please Don't Talk About Me
TTITLE8=Silver Wings
TTITLE9=Feast Here Tonight
TTITLE10=LIttle Bit of Everything in Texas
TTITLE11=Posion Love
TTITLE12=Sweet Bunch of Dasies
TTITLE13=Pass Me Not
EXTD=
EXTT0=
EXTT1=
EXTT2=
EXTT3=
EXTT4=
EXTT5=
EXTT6=
EXTT7=
EXTT8=
EXTT9=
EXTT10=
EXTT11=
EXTT12=
EXTT13=
PLAYORDER=
